<mxfile host="Electron" modified="2024-10-02T10:21:07.234Z" agent="Mozilla/5.0 (Windows NT 10.0; Win64; x64) AppleWebKit/537.36 (KHTML, like Gecko) draw.io/23.0.2 Chrome/120.0.6099.109 Electron/28.1.0 Safari/537.36" etag="AhBk8HNGFYvJ8eDZPFSh" version="23.0.2" type="device">
  <diagram name="Page-1" id="Ha8s6_4_4nTsxysomdbX">
    <mxGraphModel dx="195" dy="592" grid="1" gridSize="10" guides="1" tooltips="1" connect="1" arrows="1" fold="1" page="1" pageScale="1" pageWidth="827" pageHeight="1169" math="0" shadow="0">
      <root>
        <mxCell id="0" />
        <mxCell id="1" parent="0" />
        <mxCell id="bnDB2GUK7mdYps06CzCC-4" value="DBaaS" style="rounded=1;whiteSpace=wrap;html=1;strokeColor=#7C8A9A;strokeWidth=1;fontColor=#212121;fillColor=none;dashed=1;fontFamily=VK Sans Display;verticalAlign=top;spacing=10;fontStyle=1;arcSize=12;absoluteArcSize=1;" parent="1" vertex="1">
          <mxGeometry x="870" y="561" width="260" height="109" as="geometry" />
        </mxCell>
        <mxCell id="bnDB2GUK7mdYps06CzCC-1" value="DB 1" style="shape=image;verticalLabelPosition=bottom;labelBackgroundColor=default;verticalAlign=middle;aspect=fixed;imageAspect=0;image=data:image/svg+xml,PHN2ZyB4bWxucz0iaHR0cDovL3d3dy53My5vcmcvMjAwMC9zdmciIGZpbGw9Im5vbmUiIHZpZXdCb3g9IjAgMCAyOCAyOCIgaGVpZ2h0PSIyOCIgd2lkdGg9IjI4Ij4mI3hhOzxwYXRoIGZpbGw9IiMwMDc3RkYiIGQ9Ik00LjcwMDg4IDYuOTc3NDNDNC44MzA1MyA3Ljk4Mjc0IDUuMzE0MjIgOC44NzA1MSA2LjAyMDg3IDkuNTA2OTVDNS4zMTQyMiAxMC4xNDM0IDQuODMwNTMgMTEuMDMxMSA0LjcwMDg4IDEyLjAzNjVDNC42NjY2NiAxMi4zMDE4IDQuNjY2NjYgMTIuNjE3OSA0LjY2NjY2IDEzLjI1QzQuNjY2NjYgMTMuODgyMSA0LjY2NjY2IDE0LjE5ODIgNC43MDA4OCAxNC40NjM1QzQuODMwNTMgMTUuNDY4OSA1LjMxNDIyIDE2LjM1NjYgNi4wMjA4NyAxNi45OTMxQzUuMzE0MjIgMTcuNjI5NSA0LjgzMDUzIDE4LjUxNzMgNC43MDA4OCAxOS41MjI2QzQuNjY2NjYgMTkuNzg3OSA0LjY2NjY2IDIwLjEwNCA0LjY2NjY2IDIwLjczNjFDNC42NjY2NiAyMS4zNjgyIDQuNjY2NjYgMjEuNjg0MyA0LjcwMDg4IDIxLjk0OTZDNC45MzcxOCAyMy43ODIgNi4zNDk2MiAyNS4yMjM4IDguMTQ0NTUgMjUuNDY1MUM4LjQwNDQ4IDI1LjUgOC43MTQxIDI1LjUgOS4zMzMzMiAyNS41SDkuOTc5MTdDMTAuNTQzIDI1LjUgMTEgMjUuMDQzIDExIDI0LjQ3OTJDMTEgMjMuOTE1NCAxMC41NDMgMjMuNDU4MyA5Ljk3OTE3IDIzLjQ1ODNIOS4zMzMzMkM4LjY1MDUyIDIzLjQ1ODMgOC41MDI4MSAyMy40NTM5IDguNDA1NiAyMy40NDA5QzcuNTA4MTQgMjMuMzIwMyA2LjgwMTkyIDIyLjU5OTMgNi42ODM3NyAyMS42ODMyQzYuNjcwOTcgMjEuNTgzOSA2LjY2NjY2IDIxLjQzMzEgNi42NjY2NiAyMC43MzYxQzYuNjY2NjYgMjAuMDM5MSA2LjY3MDk3IDE5Ljg4ODMgNi42ODM3NyAxOS43ODkxQzYuODAxOTIgMTguODcyOSA3LjUwODE0IDE4LjE1MiA4LjQwNTYgMTguMDMxNEM4LjUwMjgxIDE4LjAxODMgOC42NTA1MyAxOC4wMTM5IDkuMzMzMzIgMTguMDEzOUgxMkgxN0gxOS41OTQ0QzIyLjA4NTUgMTguMDEzOSAyMy4xNzI2IDE2LjE3NjggMjMuMjk5MSAxNC40NjM1QzIzLjMzMzMgMTQgMjMuMzMzMyAxMy44ODIxIDIzLjMzMzMgMTMuMjVDMjMuMzMzMyAxMi42MTc5IDIzLjMzMzMgMTIuMzAxOCAyMy4yOTkxIDEyLjAzNjVDMjMuMTY5NCAxMS4wMzExIDIyLjY4NTggMTAuMTQzNCAyMS45NzkxIDkuNTA2OTVDMjIuNjg1OCA4Ljg3MDUxIDIzLjE2OTQgNy45ODI3NCAyMy4yOTkxIDYuOTc3NDNDMjMuMzMzMyA2LjcxMjA4IDIzLjMzMzMgNi4zOTYwMiAyMy4zMzMzIDUuNzYzODlDMjMuMzMzMyA1LjEzMTc2IDIzLjMzMzMgNC44MTU3IDIzLjI5OTEgNC41NTAzNUMyMy4wNjI4IDIuNzE4MDIgMjEuNjUwNCAxLjI3NjE2IDE5Ljg1NTQgMS4wMzQ5M0MxOS41OTU1IDEgMTkuMjg1OSAxIDE4LjY2NjcgMUg5LjMzMzMyQzguNzE0MSAxIDguNDA0NDggMSA4LjE0NDU1IDEuMDM0OTNDNi4zNDk2MiAxLjI3NjE2IDQuOTM3MTggMi43MTgwMiA0LjcwMDg4IDQuNTUwMzVDNC42NjY2NiA0LjgxNTcgNC42NjY2NiA1LjEzMTc2IDQuNjY2NjYgNS43NjM4OUM0LjY2NjY2IDYuMzk2MDIgNC42NjY2NiA2LjcxMjA4IDQuNzAwODggNi45Nzc0M1pNMTguNjY2NyAzLjA0MTY3SDkuMzMzMzJDOC42NTA1MyAzLjA0MTY3IDguNTAyODEgMy4wNDYwNyA4LjQwNTYgMy4wNTkxM0M3LjUwODE0IDMuMTc5NzUgNi44MDE5MiAzLjkwMDY4IDYuNjgzNzcgNC44MTY4NEM2LjY3MDk3IDQuOTE2MDcgNi42NjY2NiA1LjA2Njg3IDYuNjY2NjYgNS43NjM4OUM2LjY2NjY2IDYuNDYwOTEgNi42NzA5NyA2LjYxMTcxIDYuNjgzNzcgNi43MTA5NEM2LjgwMTkyIDcuNjI3MSA3LjUwODE0IDguMzQ4MDMgOC40MDU2IDguNDY4NjRDOC41MDI4MSA4LjQ4MTcxIDguNjUwNTIgOC40ODYxMSA5LjMzMzMyIDguNDg2MTFIMTguNjY2N0MxOS4zNDk1IDguNDg2MTEgMTkuNDk3MiA4LjQ4MTcxIDE5LjU5NDQgOC40Njg2NEMyMC40OTE4IDguMzQ4MDMgMjEuMTk4MSA3LjYyNzEgMjEuMzE2MiA2LjcxMDk0QzIxLjMyOSA2LjYxMTcxIDIxLjMzMzMgNi40NjA5MSAyMS4zMzMzIDUuNzYzODlDMjEuMzMzMyA1LjA2Njg3IDIxLjMyOSA0LjkxNjA3IDIxLjMxNjIgNC44MTY4NEMyMS4xOTgxIDMuOTAwNjggMjAuNDkxOCAzLjE3OTc1IDE5LjU5NDQgMy4wNTkxM0MxOS40OTcyIDMuMDQ2MDcgMTkuMzQ5NSAzLjA0MTY3IDE4LjY2NjcgMy4wNDE2N1pNMTguNjY2NyAxNS45NzIyQzE5LjM0OTUgMTUuOTcyMiAxOS40OTcyIDE1Ljk2NzggMTkuNTk0NCAxNS45NTQ4QzIwLjQ5MTggMTUuODM0MSAyMS4xOTgxIDE1LjExMzIgMjEuMzE2MiAxNC4xOTdDMjEuMzI5IDE0LjA5NzggMjEuMzMzMyAxMy45NDcgMjEuMzMzMyAxMy4yNUMyMS4zMzMzIDEyLjU1MyAyMS4zMjkgMTIuNDAyMiAyMS4zMTYyIDEyLjMwM0MyMS4xOTgxIDExLjM4NjggMjAuNDkxOCAxMC42NjU5IDE5LjU5NDQgMTAuNTQ1MkMxOS40OTcyIDEwLjUzMjIgMTkuMzQ5NSAxMC41Mjc4IDE4LjY2NjcgMTAuNTI3OEg5LjMzMzMyQzguNjUwNTMgMTAuNTI3OCA4LjUwMjgxIDEwLjUzMjIgOC40MDU2IDEwLjU0NTJDNy41MDgxNCAxMC42NjU5IDYuODAxOTIgMTEuMzg2OCA2LjY4Mzc3IDEyLjMwM0M2LjY3MDk3IDEyLjQwMjIgNi42NjY2NiAxMi41NTMgNi42NjY2NiAxMy4yNUM2LjY2NjY2IDEzLjk0NyA2LjY3MDk3IDE0LjA5NzggNi42ODM3NyAxNC4xOTdDNi44MDE5MiAxNS4xMTMyIDcuNTA4MTQgMTUuODM0MSA4LjQwNTYgMTUuOTU0OEM4LjUwMjgxIDE1Ljk2NzggOC42NTA1MiAxNS45NzIyIDkuMzMzMzIgMTUuOTcyMkgxMkgxOC42NjY3Wk0xMi42ODMxIDIwLjE3MzZDMTIuODUwNSAyMC4wMDg4IDEzLjA2MzIgMTkuOTI2MyAxMy4yOTM4IDE5LjkyNjNIMTQuODM0NkMxNS4zNjk3IDE5LjkyNjMgMTUuODY3NSAyMC4wMTY1IDE2LjMyMiAyMC4yMDQyQzE2Ljc3NjggMjAuMzg0IDE3LjE3NDkgMjAuNjQ1NyAxNy41MTE5IDIwLjk4ODdDMTcuODQ5MSAyMS4zMjYzIDE4LjEwNzIgMjEuNzI0NyAxOC4yODY0IDIyLjE3OTFDMTguNDY3MiAyMi42Mzc3IDE4LjU1NDQgMjMuMTM3IDE4LjU1NDQgMjMuNjcxN0MxOC41NTQ0IDI0LjIwNjUgMTguNDY3MiAyNC43MDc5IDE4LjI4NzEgMjUuMTcwOUwxOC4yODY0IDI1LjE3MjhDMTguMTA3MiAyNS42MjcyIDE3Ljg0OTQgMjYuMDI3NyAxNy41MTMzIDI2LjM3MDJMMTcuNTEwNSAyNi4zNzMxQzE3LjE3MzYgMjYuNzEgMTYuNzc2NCAyNi45NzA2IDE2LjMyMzQgMjcuMTU1N0wxNi4zMjA2IDI3LjE1NjhDMTUuODY2NSAyNy4zMzg1IDE1LjM2OTIgMjcuNDI1NiAxNC44MzQ2IDI3LjQyNTZIMTMuMjkzOEMxMy4wNjA4IDI3LjQyNTYgMTIuODQ2MSAyNy4zNDE1IDEyLjY3NzkgMjcuMTczM0MxMi41MDk4IDI3LjAwNTEgMTIuNDI1NiAyNi43OTA0IDEyLjQyNTYgMjYuNTU3NFYyMC43OTQ2QzEyLjQyNTYgMjAuNTY0MSAxMi41MDQ2IDIwLjM0MyAxMi42ODMxIDIwLjE3MzZaTTI0Ljc4MzUgMjMuMzA2M0MyNC45MzI4IDIzLjQwNyAyNS4wNjgxIDIzLjUyNzUgMjUuMTg3OSAyMy42NjgyQzI1LjQ5NDYgMjQuMDI4NiAyNS42Mjk5IDI0LjQ4MyAyNS42Mjk5IDI0Ljk5MTFDMjUuNjI5OSAyNS40NTI1IDI1LjUxODggMjUuODc3NCAyNS4yODYyIDI2LjI1MkMyNS4wNjI2IDI2LjYyMTMgMjQuNzQ5MyAyNi45MTA4IDI0LjM1NzkgMjcuMTJMMjQuMzUyOCAyNy4xMjI3QzIzLjk1NDggMjcuMzI4NiAyMy41MDg2IDI3LjQyNTYgMjMuMDI1MSAyNy40MjU2SDIwLjgxMTlDMjAuNTc4OSAyNy40MjU2IDIwLjM2NDIgMjcuMzQxNSAyMC4xOTYgMjcuMTczM0MyMC4wMjc4IDI3LjAwNTEgMTkuOTQzNyAyNi43OTA0IDE5Ljk0MzcgMjYuNTU3NFYyMC43OTQ2QzE5Ljk0MzcgMjAuNTY0MSAyMC4wMjI3IDIwLjM0MyAyMC4yMDExIDIwLjE3MzZDMjAuMzY4NSAyMC4wMDg4IDIwLjU4MTIgMTkuOTI2MyAyMC44MTE5IDE5LjkyNjNIMjIuODQ2M0MyMy4yODc1IDE5LjkyNjMgMjMuNjk0MyAyMC4wMTM4IDI0LjA1NDEgMjAuMjAzM0MyNC40MTMgMjAuMzgzNyAyNC43MDE5IDIwLjY0MTkgMjQuOTA5MyAyMC45NzY5QzI1LjEyNjEgMjEuMzE3NyAyNS4yMjk4IDIxLjcwNDIgMjUuMjI5OCAyMi4xMjI1QzI1LjIyOTggMjIuNDgzNiAyNS4xMjg4IDIyLjgxOSAyNC45Mjc3IDIzLjExNzNMMjQuNzgzNSAyMy4zMDYzWk0xNC4xNjIxIDIxLjU2MDdWMjUuNzkxM0gxNC44MzQ2QzE1LjI0NDQgMjUuNzkxMyAxNS41ODcxIDI1LjY5OTQgMTUuODc2MiAyNS41Mjc5QzE2LjE3OTMgMjUuMzQ1OSAxNi40MTU2IDI1LjEwMDkgMTYuNTg5NCAyNC43ODY1QzE2Ljc2MSAyNC40NzA3IDE2Ljg1MiAyNC4xMDI3IDE2Ljg1MiAyMy42NzE3QzE2Ljg1MiAyMy4yMzM0IDE2Ljc2MDMgMjIuODY2NCAxNi41OTAxIDIyLjU1OEMxNi40MTY1IDIyLjI0MzggMTYuMTgxMSAyMi4wMDIyIDE1Ljg3OTYgMjEuODI1OUwxNS44NzcxIDIxLjgyNDVDMTUuNTg3OCAyMS42NTI3IDE1LjI0NDggMjEuNTYwNyAxNC44MzQ2IDIxLjU2MDdIMTQuMTYyMVpNMjEuNjgwMiAyMS41OTQ3VjIyLjY1ODdIMjIuODQ2M0MyMy4wOTkzIDIyLjY1ODcgMjMuMjY0MSAyMi41OTc2IDIzLjM3NjcgMjIuNTFMMjMuMzgxMSAyMi41MDY2QzIzLjQ2MDQgMjIuNDQ2NiAyMy41MjczIDIyLjM0NjUgMjMuNTI3MyAyMi4xMjI1QzIzLjUyNzMgMjEuODk3OCAyMy40NjA0IDIxLjgwNDcgMjMuMzg3MSAyMS43NTEyTDIzLjM3NjYgMjEuNzQzNkMyMy4yNjQgMjEuNjU2IDIzLjA5OTMgMjEuNTk0NyAyMi44NDYzIDIxLjU5NDdIMjEuNjgwMlpNMjEuNjgwMiAyNC4zMjcxVjI1Ljc1NzJIMjMuMDI1MUMyMy4yMzY4IDI1Ljc1NzIgMjMuNDA0MyAyNS43MjA1IDIzLjUzNzYgMjUuNjU5NUMyMy42NjU3IDI1LjYwMSAyMy43NTc3IDI1LjUyMDQgMjMuODI1MSAyNS40MTU4QzIzLjg4NDQgMjUuMzIzOSAyMy45Mjc0IDI1LjE5MDUgMjMuOTI3NCAyNC45OTExQzIzLjkyNzQgMjQuODEzNCAyMy44ODY3IDI0LjcwNDUgMjMuODM2NCAyNC42MzQxQzIzLjc3NDcgMjQuNTQ3OCAyMy42ODcgMjQuNDc2NiAyMy41NTY1IDI0LjQyNDRMMjMuNTQ2OSAyNC40MjA1QzIzLjQxMTEgMjQuMzYyMyAyMy4yNDAyIDI0LjMyNzEgMjMuMDI1MSAyNC4zMjcxSDIxLjY4MDJaIiBjbGlwLXJ1bGU9ImV2ZW5vZGQiIGZpbGwtcnVsZT0iZXZlbm9kZCIvPiYjeGE7PC9zdmc+;fontFamily=VK Sans Display;fillColor=none;strokeColor=none;fontColor=#212121;gradientColor=none;rounded=0;" parent="1" vertex="1">
          <mxGeometry x="890" y="600" width="28" height="28" as="geometry" />
        </mxCell>
        <mxCell id="bnDB2GUK7mdYps06CzCC-8" value="DB 2" style="shape=image;verticalLabelPosition=bottom;labelBackgroundColor=default;verticalAlign=middle;aspect=fixed;imageAspect=0;image=data:image/svg+xml,PHN2ZyB4bWxucz0iaHR0cDovL3d3dy53My5vcmcvMjAwMC9zdmciIGZpbGw9Im5vbmUiIHZpZXdCb3g9IjAgMCAyOCAyOCIgaGVpZ2h0PSIyOCIgd2lkdGg9IjI4Ij4mI3hhOzxwYXRoIGZpbGw9IiMwMDc3RkYiIGQ9Ik00LjcwMDg4IDYuOTc3NDNDNC44MzA1MyA3Ljk4Mjc0IDUuMzE0MjIgOC44NzA1MSA2LjAyMDg3IDkuNTA2OTVDNS4zMTQyMiAxMC4xNDM0IDQuODMwNTMgMTEuMDMxMSA0LjcwMDg4IDEyLjAzNjVDNC42NjY2NiAxMi4zMDE4IDQuNjY2NjYgMTIuNjE3OSA0LjY2NjY2IDEzLjI1QzQuNjY2NjYgMTMuODgyMSA0LjY2NjY2IDE0LjE5ODIgNC43MDA4OCAxNC40NjM1QzQuODMwNTMgMTUuNDY4OSA1LjMxNDIyIDE2LjM1NjYgNi4wMjA4NyAxNi45OTMxQzUuMzE0MjIgMTcuNjI5NSA0LjgzMDUzIDE4LjUxNzMgNC43MDA4OCAxOS41MjI2QzQuNjY2NjYgMTkuNzg3OSA0LjY2NjY2IDIwLjEwNCA0LjY2NjY2IDIwLjczNjFDNC42NjY2NiAyMS4zNjgyIDQuNjY2NjYgMjEuNjg0MyA0LjcwMDg4IDIxLjk0OTZDNC45MzcxOCAyMy43ODIgNi4zNDk2MiAyNS4yMjM4IDguMTQ0NTUgMjUuNDY1MUM4LjQwNDQ4IDI1LjUgOC43MTQxIDI1LjUgOS4zMzMzMiAyNS41SDkuOTc5MTdDMTAuNTQzIDI1LjUgMTEgMjUuMDQzIDExIDI0LjQ3OTJDMTEgMjMuOTE1NCAxMC41NDMgMjMuNDU4MyA5Ljk3OTE3IDIzLjQ1ODNIOS4zMzMzMkM4LjY1MDUyIDIzLjQ1ODMgOC41MDI4MSAyMy40NTM5IDguNDA1NiAyMy40NDA5QzcuNTA4MTQgMjMuMzIwMyA2LjgwMTkyIDIyLjU5OTMgNi42ODM3NyAyMS42ODMyQzYuNjcwOTcgMjEuNTgzOSA2LjY2NjY2IDIxLjQzMzEgNi42NjY2NiAyMC43MzYxQzYuNjY2NjYgMjAuMDM5MSA2LjY3MDk3IDE5Ljg4ODMgNi42ODM3NyAxOS43ODkxQzYuODAxOTIgMTguODcyOSA3LjUwODE0IDE4LjE1MiA4LjQwNTYgMTguMDMxNEM4LjUwMjgxIDE4LjAxODMgOC42NTA1MyAxOC4wMTM5IDkuMzMzMzIgMTguMDEzOUgxMkgxN0gxOS41OTQ0QzIyLjA4NTUgMTguMDEzOSAyMy4xNzI2IDE2LjE3NjggMjMuMjk5MSAxNC40NjM1QzIzLjMzMzMgMTQgMjMuMzMzMyAxMy44ODIxIDIzLjMzMzMgMTMuMjVDMjMuMzMzMyAxMi42MTc5IDIzLjMzMzMgMTIuMzAxOCAyMy4yOTkxIDEyLjAzNjVDMjMuMTY5NCAxMS4wMzExIDIyLjY4NTggMTAuMTQzNCAyMS45NzkxIDkuNTA2OTVDMjIuNjg1OCA4Ljg3MDUxIDIzLjE2OTQgNy45ODI3NCAyMy4yOTkxIDYuOTc3NDNDMjMuMzMzMyA2LjcxMjA4IDIzLjMzMzMgNi4zOTYwMiAyMy4zMzMzIDUuNzYzODlDMjMuMzMzMyA1LjEzMTc2IDIzLjMzMzMgNC44MTU3IDIzLjI5OTEgNC41NTAzNUMyMy4wNjI4IDIuNzE4MDIgMjEuNjUwNCAxLjI3NjE2IDE5Ljg1NTQgMS4wMzQ5M0MxOS41OTU1IDEgMTkuMjg1OSAxIDE4LjY2NjcgMUg5LjMzMzMyQzguNzE0MSAxIDguNDA0NDggMSA4LjE0NDU1IDEuMDM0OTNDNi4zNDk2MiAxLjI3NjE2IDQuOTM3MTggMi43MTgwMiA0LjcwMDg4IDQuNTUwMzVDNC42NjY2NiA0LjgxNTcgNC42NjY2NiA1LjEzMTc2IDQuNjY2NjYgNS43NjM4OUM0LjY2NjY2IDYuMzk2MDIgNC42NjY2NiA2LjcxMjA4IDQuNzAwODggNi45Nzc0M1pNMTguNjY2NyAzLjA0MTY3SDkuMzMzMzJDOC42NTA1MyAzLjA0MTY3IDguNTAyODEgMy4wNDYwNyA4LjQwNTYgMy4wNTkxM0M3LjUwODE0IDMuMTc5NzUgNi44MDE5MiAzLjkwMDY4IDYuNjgzNzcgNC44MTY4NEM2LjY3MDk3IDQuOTE2MDcgNi42NjY2NiA1LjA2Njg3IDYuNjY2NjYgNS43NjM4OUM2LjY2NjY2IDYuNDYwOTEgNi42NzA5NyA2LjYxMTcxIDYuNjgzNzcgNi43MTA5NEM2LjgwMTkyIDcuNjI3MSA3LjUwODE0IDguMzQ4MDMgOC40MDU2IDguNDY4NjRDOC41MDI4MSA4LjQ4MTcxIDguNjUwNTIgOC40ODYxMSA5LjMzMzMyIDguNDg2MTFIMTguNjY2N0MxOS4zNDk1IDguNDg2MTEgMTkuNDk3MiA4LjQ4MTcxIDE5LjU5NDQgOC40Njg2NEMyMC40OTE4IDguMzQ4MDMgMjEuMTk4MSA3LjYyNzEgMjEuMzE2MiA2LjcxMDk0QzIxLjMyOSA2LjYxMTcxIDIxLjMzMzMgNi40NjA5MSAyMS4zMzMzIDUuNzYzODlDMjEuMzMzMyA1LjA2Njg3IDIxLjMyOSA0LjkxNjA3IDIxLjMxNjIgNC44MTY4NEMyMS4xOTgxIDMuOTAwNjggMjAuNDkxOCAzLjE3OTc1IDE5LjU5NDQgMy4wNTkxM0MxOS40OTcyIDMuMDQ2MDcgMTkuMzQ5NSAzLjA0MTY3IDE4LjY2NjcgMy4wNDE2N1pNMTguNjY2NyAxNS45NzIyQzE5LjM0OTUgMTUuOTcyMiAxOS40OTcyIDE1Ljk2NzggMTkuNTk0NCAxNS45NTQ4QzIwLjQ5MTggMTUuODM0MSAyMS4xOTgxIDE1LjExMzIgMjEuMzE2MiAxNC4xOTdDMjEuMzI5IDE0LjA5NzggMjEuMzMzMyAxMy45NDcgMjEuMzMzMyAxMy4yNUMyMS4zMzMzIDEyLjU1MyAyMS4zMjkgMTIuNDAyMiAyMS4zMTYyIDEyLjMwM0MyMS4xOTgxIDExLjM4NjggMjAuNDkxOCAxMC42NjU5IDE5LjU5NDQgMTAuNTQ1MkMxOS40OTcyIDEwLjUzMjIgMTkuMzQ5NSAxMC41Mjc4IDE4LjY2NjcgMTAuNTI3OEg5LjMzMzMyQzguNjUwNTMgMTAuNTI3OCA4LjUwMjgxIDEwLjUzMjIgOC40MDU2IDEwLjU0NTJDNy41MDgxNCAxMC42NjU5IDYuODAxOTIgMTEuMzg2OCA2LjY4Mzc3IDEyLjMwM0M2LjY3MDk3IDEyLjQwMjIgNi42NjY2NiAxMi41NTMgNi42NjY2NiAxMy4yNUM2LjY2NjY2IDEzLjk0NyA2LjY3MDk3IDE0LjA5NzggNi42ODM3NyAxNC4xOTdDNi44MDE5MiAxNS4xMTMyIDcuNTA4MTQgMTUuODM0MSA4LjQwNTYgMTUuOTU0OEM4LjUwMjgxIDE1Ljk2NzggOC42NTA1MiAxNS45NzIyIDkuMzMzMzIgMTUuOTcyMkgxMkgxOC42NjY3Wk0xMi42ODMxIDIwLjE3MzZDMTIuODUwNSAyMC4wMDg4IDEzLjA2MzIgMTkuOTI2MyAxMy4yOTM4IDE5LjkyNjNIMTQuODM0NkMxNS4zNjk3IDE5LjkyNjMgMTUuODY3NSAyMC4wMTY1IDE2LjMyMiAyMC4yMDQyQzE2Ljc3NjggMjAuMzg0IDE3LjE3NDkgMjAuNjQ1NyAxNy41MTE5IDIwLjk4ODdDMTcuODQ5MSAyMS4zMjYzIDE4LjEwNzIgMjEuNzI0NyAxOC4yODY0IDIyLjE3OTFDMTguNDY3MiAyMi42Mzc3IDE4LjU1NDQgMjMuMTM3IDE4LjU1NDQgMjMuNjcxN0MxOC41NTQ0IDI0LjIwNjUgMTguNDY3MiAyNC43MDc5IDE4LjI4NzEgMjUuMTcwOUwxOC4yODY0IDI1LjE3MjhDMTguMTA3MiAyNS42MjcyIDE3Ljg0OTQgMjYuMDI3NyAxNy41MTMzIDI2LjM3MDJMMTcuNTEwNSAyNi4zNzMxQzE3LjE3MzYgMjYuNzEgMTYuNzc2NCAyNi45NzA2IDE2LjMyMzQgMjcuMTU1N0wxNi4zMjA2IDI3LjE1NjhDMTUuODY2NSAyNy4zMzg1IDE1LjM2OTIgMjcuNDI1NiAxNC44MzQ2IDI3LjQyNTZIMTMuMjkzOEMxMy4wNjA4IDI3LjQyNTYgMTIuODQ2MSAyNy4zNDE1IDEyLjY3NzkgMjcuMTczM0MxMi41MDk4IDI3LjAwNTEgMTIuNDI1NiAyNi43OTA0IDEyLjQyNTYgMjYuNTU3NFYyMC43OTQ2QzEyLjQyNTYgMjAuNTY0MSAxMi41MDQ2IDIwLjM0MyAxMi42ODMxIDIwLjE3MzZaTTI0Ljc4MzUgMjMuMzA2M0MyNC45MzI4IDIzLjQwNyAyNS4wNjgxIDIzLjUyNzUgMjUuMTg3OSAyMy42NjgyQzI1LjQ5NDYgMjQuMDI4NiAyNS42Mjk5IDI0LjQ4MyAyNS42Mjk5IDI0Ljk5MTFDMjUuNjI5OSAyNS40NTI1IDI1LjUxODggMjUuODc3NCAyNS4yODYyIDI2LjI1MkMyNS4wNjI2IDI2LjYyMTMgMjQuNzQ5MyAyNi45MTA4IDI0LjM1NzkgMjcuMTJMMjQuMzUyOCAyNy4xMjI3QzIzLjk1NDggMjcuMzI4NiAyMy41MDg2IDI3LjQyNTYgMjMuMDI1MSAyNy40MjU2SDIwLjgxMTlDMjAuNTc4OSAyNy40MjU2IDIwLjM2NDIgMjcuMzQxNSAyMC4xOTYgMjcuMTczM0MyMC4wMjc4IDI3LjAwNTEgMTkuOTQzNyAyNi43OTA0IDE5Ljk0MzcgMjYuNTU3NFYyMC43OTQ2QzE5Ljk0MzcgMjAuNTY0MSAyMC4wMjI3IDIwLjM0MyAyMC4yMDExIDIwLjE3MzZDMjAuMzY4NSAyMC4wMDg4IDIwLjU4MTIgMTkuOTI2MyAyMC44MTE5IDE5LjkyNjNIMjIuODQ2M0MyMy4yODc1IDE5LjkyNjMgMjMuNjk0MyAyMC4wMTM4IDI0LjA1NDEgMjAuMjAzM0MyNC40MTMgMjAuMzgzNyAyNC43MDE5IDIwLjY0MTkgMjQuOTA5MyAyMC45NzY5QzI1LjEyNjEgMjEuMzE3NyAyNS4yMjk4IDIxLjcwNDIgMjUuMjI5OCAyMi4xMjI1QzI1LjIyOTggMjIuNDgzNiAyNS4xMjg4IDIyLjgxOSAyNC45Mjc3IDIzLjExNzNMMjQuNzgzNSAyMy4zMDYzWk0xNC4xNjIxIDIxLjU2MDdWMjUuNzkxM0gxNC44MzQ2QzE1LjI0NDQgMjUuNzkxMyAxNS41ODcxIDI1LjY5OTQgMTUuODc2MiAyNS41Mjc5QzE2LjE3OTMgMjUuMzQ1OSAxNi40MTU2IDI1LjEwMDkgMTYuNTg5NCAyNC43ODY1QzE2Ljc2MSAyNC40NzA3IDE2Ljg1MiAyNC4xMDI3IDE2Ljg1MiAyMy42NzE3QzE2Ljg1MiAyMy4yMzM0IDE2Ljc2MDMgMjIuODY2NCAxNi41OTAxIDIyLjU1OEMxNi40MTY1IDIyLjI0MzggMTYuMTgxMSAyMi4wMDIyIDE1Ljg3OTYgMjEuODI1OUwxNS44NzcxIDIxLjgyNDVDMTUuNTg3OCAyMS42NTI3IDE1LjI0NDggMjEuNTYwNyAxNC44MzQ2IDIxLjU2MDdIMTQuMTYyMVpNMjEuNjgwMiAyMS41OTQ3VjIyLjY1ODdIMjIuODQ2M0MyMy4wOTkzIDIyLjY1ODcgMjMuMjY0MSAyMi41OTc2IDIzLjM3NjcgMjIuNTFMMjMuMzgxMSAyMi41MDY2QzIzLjQ2MDQgMjIuNDQ2NiAyMy41MjczIDIyLjM0NjUgMjMuNTI3MyAyMi4xMjI1QzIzLjUyNzMgMjEuODk3OCAyMy40NjA0IDIxLjgwNDcgMjMuMzg3MSAyMS43NTEyTDIzLjM3NjYgMjEuNzQzNkMyMy4yNjQgMjEuNjU2IDIzLjA5OTMgMjEuNTk0NyAyMi44NDYzIDIxLjU5NDdIMjEuNjgwMlpNMjEuNjgwMiAyNC4zMjcxVjI1Ljc1NzJIMjMuMDI1MUMyMy4yMzY4IDI1Ljc1NzIgMjMuNDA0MyAyNS43MjA1IDIzLjUzNzYgMjUuNjU5NUMyMy42NjU3IDI1LjYwMSAyMy43NTc3IDI1LjUyMDQgMjMuODI1MSAyNS40MTU4QzIzLjg4NDQgMjUuMzIzOSAyMy45Mjc0IDI1LjE5MDUgMjMuOTI3NCAyNC45OTExQzIzLjkyNzQgMjQuODEzNCAyMy44ODY3IDI0LjcwNDUgMjMuODM2NCAyNC42MzQxQzIzLjc3NDcgMjQuNTQ3OCAyMy42ODcgMjQuNDc2NiAyMy41NTY1IDI0LjQyNDRMMjMuNTQ2OSAyNC40MjA1QzIzLjQxMTEgMjQuMzYyMyAyMy4yNDAyIDI0LjMyNzEgMjMuMDI1MSAyNC4zMjcxSDIxLjY4MDJaIiBjbGlwLXJ1bGU9ImV2ZW5vZGQiIGZpbGwtcnVsZT0iZXZlbm9kZCIvPiYjeGE7PC9zdmc+;fontFamily=VK Sans Display;fillColor=none;strokeColor=none;fontColor=#212121;gradientColor=none;rounded=0;" parent="1" vertex="1">
          <mxGeometry x="940" y="600" width="28" height="28" as="geometry" />
        </mxCell>
        <mxCell id="bnDB2GUK7mdYps06CzCC-9" value="DB 3" style="shape=image;verticalLabelPosition=bottom;labelBackgroundColor=default;verticalAlign=middle;aspect=fixed;imageAspect=0;image=data:image/svg+xml,PHN2ZyB4bWxucz0iaHR0cDovL3d3dy53My5vcmcvMjAwMC9zdmciIGZpbGw9Im5vbmUiIHZpZXdCb3g9IjAgMCAyOCAyOCIgaGVpZ2h0PSIyOCIgd2lkdGg9IjI4Ij4mI3hhOzxwYXRoIGZpbGw9IiMwMDc3RkYiIGQ9Ik00LjcwMDg4IDYuOTc3NDNDNC44MzA1MyA3Ljk4Mjc0IDUuMzE0MjIgOC44NzA1MSA2LjAyMDg3IDkuNTA2OTVDNS4zMTQyMiAxMC4xNDM0IDQuODMwNTMgMTEuMDMxMSA0LjcwMDg4IDEyLjAzNjVDNC42NjY2NiAxMi4zMDE4IDQuNjY2NjYgMTIuNjE3OSA0LjY2NjY2IDEzLjI1QzQuNjY2NjYgMTMuODgyMSA0LjY2NjY2IDE0LjE5ODIgNC43MDA4OCAxNC40NjM1QzQuODMwNTMgMTUuNDY4OSA1LjMxNDIyIDE2LjM1NjYgNi4wMjA4NyAxNi45OTMxQzUuMzE0MjIgMTcuNjI5NSA0LjgzMDUzIDE4LjUxNzMgNC43MDA4OCAxOS41MjI2QzQuNjY2NjYgMTkuNzg3OSA0LjY2NjY2IDIwLjEwNCA0LjY2NjY2IDIwLjczNjFDNC42NjY2NiAyMS4zNjgyIDQuNjY2NjYgMjEuNjg0MyA0LjcwMDg4IDIxLjk0OTZDNC45MzcxOCAyMy43ODIgNi4zNDk2MiAyNS4yMjM4IDguMTQ0NTUgMjUuNDY1MUM4LjQwNDQ4IDI1LjUgOC43MTQxIDI1LjUgOS4zMzMzMiAyNS41SDkuOTc5MTdDMTAuNTQzIDI1LjUgMTEgMjUuMDQzIDExIDI0LjQ3OTJDMTEgMjMuOTE1NCAxMC41NDMgMjMuNDU4MyA5Ljk3OTE3IDIzLjQ1ODNIOS4zMzMzMkM4LjY1MDUyIDIzLjQ1ODMgOC41MDI4MSAyMy40NTM5IDguNDA1NiAyMy40NDA5QzcuNTA4MTQgMjMuMzIwMyA2LjgwMTkyIDIyLjU5OTMgNi42ODM3NyAyMS42ODMyQzYuNjcwOTcgMjEuNTgzOSA2LjY2NjY2IDIxLjQzMzEgNi42NjY2NiAyMC43MzYxQzYuNjY2NjYgMjAuMDM5MSA2LjY3MDk3IDE5Ljg4ODMgNi42ODM3NyAxOS43ODkxQzYuODAxOTIgMTguODcyOSA3LjUwODE0IDE4LjE1MiA4LjQwNTYgMTguMDMxNEM4LjUwMjgxIDE4LjAxODMgOC42NTA1MyAxOC4wMTM5IDkuMzMzMzIgMTguMDEzOUgxMkgxN0gxOS41OTQ0QzIyLjA4NTUgMTguMDEzOSAyMy4xNzI2IDE2LjE3NjggMjMuMjk5MSAxNC40NjM1QzIzLjMzMzMgMTQgMjMuMzMzMyAxMy44ODIxIDIzLjMzMzMgMTMuMjVDMjMuMzMzMyAxMi42MTc5IDIzLjMzMzMgMTIuMzAxOCAyMy4yOTkxIDEyLjAzNjVDMjMuMTY5NCAxMS4wMzExIDIyLjY4NTggMTAuMTQzNCAyMS45NzkxIDkuNTA2OTVDMjIuNjg1OCA4Ljg3MDUxIDIzLjE2OTQgNy45ODI3NCAyMy4yOTkxIDYuOTc3NDNDMjMuMzMzMyA2LjcxMjA4IDIzLjMzMzMgNi4zOTYwMiAyMy4zMzMzIDUuNzYzODlDMjMuMzMzMyA1LjEzMTc2IDIzLjMzMzMgNC44MTU3IDIzLjI5OTEgNC41NTAzNUMyMy4wNjI4IDIuNzE4MDIgMjEuNjUwNCAxLjI3NjE2IDE5Ljg1NTQgMS4wMzQ5M0MxOS41OTU1IDEgMTkuMjg1OSAxIDE4LjY2NjcgMUg5LjMzMzMyQzguNzE0MSAxIDguNDA0NDggMSA4LjE0NDU1IDEuMDM0OTNDNi4zNDk2MiAxLjI3NjE2IDQuOTM3MTggMi43MTgwMiA0LjcwMDg4IDQuNTUwMzVDNC42NjY2NiA0LjgxNTcgNC42NjY2NiA1LjEzMTc2IDQuNjY2NjYgNS43NjM4OUM0LjY2NjY2IDYuMzk2MDIgNC42NjY2NiA2LjcxMjA4IDQuNzAwODggNi45Nzc0M1pNMTguNjY2NyAzLjA0MTY3SDkuMzMzMzJDOC42NTA1MyAzLjA0MTY3IDguNTAyODEgMy4wNDYwNyA4LjQwNTYgMy4wNTkxM0M3LjUwODE0IDMuMTc5NzUgNi44MDE5MiAzLjkwMDY4IDYuNjgzNzcgNC44MTY4NEM2LjY3MDk3IDQuOTE2MDcgNi42NjY2NiA1LjA2Njg3IDYuNjY2NjYgNS43NjM4OUM2LjY2NjY2IDYuNDYwOTEgNi42NzA5NyA2LjYxMTcxIDYuNjgzNzcgNi43MTA5NEM2LjgwMTkyIDcuNjI3MSA3LjUwODE0IDguMzQ4MDMgOC40MDU2IDguNDY4NjRDOC41MDI4MSA4LjQ4MTcxIDguNjUwNTIgOC40ODYxMSA5LjMzMzMyIDguNDg2MTFIMTguNjY2N0MxOS4zNDk1IDguNDg2MTEgMTkuNDk3MiA4LjQ4MTcxIDE5LjU5NDQgOC40Njg2NEMyMC40OTE4IDguMzQ4MDMgMjEuMTk4MSA3LjYyNzEgMjEuMzE2MiA2LjcxMDk0QzIxLjMyOSA2LjYxMTcxIDIxLjMzMzMgNi40NjA5MSAyMS4zMzMzIDUuNzYzODlDMjEuMzMzMyA1LjA2Njg3IDIxLjMyOSA0LjkxNjA3IDIxLjMxNjIgNC44MTY4NEMyMS4xOTgxIDMuOTAwNjggMjAuNDkxOCAzLjE3OTc1IDE5LjU5NDQgMy4wNTkxM0MxOS40OTcyIDMuMDQ2MDcgMTkuMzQ5NSAzLjA0MTY3IDE4LjY2NjcgMy4wNDE2N1pNMTguNjY2NyAxNS45NzIyQzE5LjM0OTUgMTUuOTcyMiAxOS40OTcyIDE1Ljk2NzggMTkuNTk0NCAxNS45NTQ4QzIwLjQ5MTggMTUuODM0MSAyMS4xOTgxIDE1LjExMzIgMjEuMzE2MiAxNC4xOTdDMjEuMzI5IDE0LjA5NzggMjEuMzMzMyAxMy45NDcgMjEuMzMzMyAxMy4yNUMyMS4zMzMzIDEyLjU1MyAyMS4zMjkgMTIuNDAyMiAyMS4zMTYyIDEyLjMwM0MyMS4xOTgxIDExLjM4NjggMjAuNDkxOCAxMC42NjU5IDE5LjU5NDQgMTAuNTQ1MkMxOS40OTcyIDEwLjUzMjIgMTkuMzQ5NSAxMC41Mjc4IDE4LjY2NjcgMTAuNTI3OEg5LjMzMzMyQzguNjUwNTMgMTAuNTI3OCA4LjUwMjgxIDEwLjUzMjIgOC40MDU2IDEwLjU0NTJDNy41MDgxNCAxMC42NjU5IDYuODAxOTIgMTEuMzg2OCA2LjY4Mzc3IDEyLjMwM0M2LjY3MDk3IDEyLjQwMjIgNi42NjY2NiAxMi41NTMgNi42NjY2NiAxMy4yNUM2LjY2NjY2IDEzLjk0NyA2LjY3MDk3IDE0LjA5NzggNi42ODM3NyAxNC4xOTdDNi44MDE5MiAxNS4xMTMyIDcuNTA4MTQgMTUuODM0MSA4LjQwNTYgMTUuOTU0OEM4LjUwMjgxIDE1Ljk2NzggOC42NTA1MiAxNS45NzIyIDkuMzMzMzIgMTUuOTcyMkgxMkgxOC42NjY3Wk0xMi42ODMxIDIwLjE3MzZDMTIuODUwNSAyMC4wMDg4IDEzLjA2MzIgMTkuOTI2MyAxMy4yOTM4IDE5LjkyNjNIMTQuODM0NkMxNS4zNjk3IDE5LjkyNjMgMTUuODY3NSAyMC4wMTY1IDE2LjMyMiAyMC4yMDQyQzE2Ljc3NjggMjAuMzg0IDE3LjE3NDkgMjAuNjQ1NyAxNy41MTE5IDIwLjk4ODdDMTcuODQ5MSAyMS4zMjYzIDE4LjEwNzIgMjEuNzI0NyAxOC4yODY0IDIyLjE3OTFDMTguNDY3MiAyMi42Mzc3IDE4LjU1NDQgMjMuMTM3IDE4LjU1NDQgMjMuNjcxN0MxOC41NTQ0IDI0LjIwNjUgMTguNDY3MiAyNC43MDc5IDE4LjI4NzEgMjUuMTcwOUwxOC4yODY0IDI1LjE3MjhDMTguMTA3MiAyNS42MjcyIDE3Ljg0OTQgMjYuMDI3NyAxNy41MTMzIDI2LjM3MDJMMTcuNTEwNSAyNi4zNzMxQzE3LjE3MzYgMjYuNzEgMTYuNzc2NCAyNi45NzA2IDE2LjMyMzQgMjcuMTU1N0wxNi4zMjA2IDI3LjE1NjhDMTUuODY2NSAyNy4zMzg1IDE1LjM2OTIgMjcuNDI1NiAxNC44MzQ2IDI3LjQyNTZIMTMuMjkzOEMxMy4wNjA4IDI3LjQyNTYgMTIuODQ2MSAyNy4zNDE1IDEyLjY3NzkgMjcuMTczM0MxMi41MDk4IDI3LjAwNTEgMTIuNDI1NiAyNi43OTA0IDEyLjQyNTYgMjYuNTU3NFYyMC43OTQ2QzEyLjQyNTYgMjAuNTY0MSAxMi41MDQ2IDIwLjM0MyAxMi42ODMxIDIwLjE3MzZaTTI0Ljc4MzUgMjMuMzA2M0MyNC45MzI4IDIzLjQwNyAyNS4wNjgxIDIzLjUyNzUgMjUuMTg3OSAyMy42NjgyQzI1LjQ5NDYgMjQuMDI4NiAyNS42Mjk5IDI0LjQ4MyAyNS42Mjk5IDI0Ljk5MTFDMjUuNjI5OSAyNS40NTI1IDI1LjUxODggMjUuODc3NCAyNS4yODYyIDI2LjI1MkMyNS4wNjI2IDI2LjYyMTMgMjQuNzQ5MyAyNi45MTA4IDI0LjM1NzkgMjcuMTJMMjQuMzUyOCAyNy4xMjI3QzIzLjk1NDggMjcuMzI4NiAyMy41MDg2IDI3LjQyNTYgMjMuMDI1MSAyNy40MjU2SDIwLjgxMTlDMjAuNTc4OSAyNy40MjU2IDIwLjM2NDIgMjcuMzQxNSAyMC4xOTYgMjcuMTczM0MyMC4wMjc4IDI3LjAwNTEgMTkuOTQzNyAyNi43OTA0IDE5Ljk0MzcgMjYuNTU3NFYyMC43OTQ2QzE5Ljk0MzcgMjAuNTY0MSAyMC4wMjI3IDIwLjM0MyAyMC4yMDExIDIwLjE3MzZDMjAuMzY4NSAyMC4wMDg4IDIwLjU4MTIgMTkuOTI2MyAyMC44MTE5IDE5LjkyNjNIMjIuODQ2M0MyMy4yODc1IDE5LjkyNjMgMjMuNjk0MyAyMC4wMTM4IDI0LjA1NDEgMjAuMjAzM0MyNC40MTMgMjAuMzgzNyAyNC43MDE5IDIwLjY0MTkgMjQuOTA5MyAyMC45NzY5QzI1LjEyNjEgMjEuMzE3NyAyNS4yMjk4IDIxLjcwNDIgMjUuMjI5OCAyMi4xMjI1QzI1LjIyOTggMjIuNDgzNiAyNS4xMjg4IDIyLjgxOSAyNC45Mjc3IDIzLjExNzNMMjQuNzgzNSAyMy4zMDYzWk0xNC4xNjIxIDIxLjU2MDdWMjUuNzkxM0gxNC44MzQ2QzE1LjI0NDQgMjUuNzkxMyAxNS41ODcxIDI1LjY5OTQgMTUuODc2MiAyNS41Mjc5QzE2LjE3OTMgMjUuMzQ1OSAxNi40MTU2IDI1LjEwMDkgMTYuNTg5NCAyNC43ODY1QzE2Ljc2MSAyNC40NzA3IDE2Ljg1MiAyNC4xMDI3IDE2Ljg1MiAyMy42NzE3QzE2Ljg1MiAyMy4yMzM0IDE2Ljc2MDMgMjIuODY2NCAxNi41OTAxIDIyLjU1OEMxNi40MTY1IDIyLjI0MzggMTYuMTgxMSAyMi4wMDIyIDE1Ljg3OTYgMjEuODI1OUwxNS44NzcxIDIxLjgyNDVDMTUuNTg3OCAyMS42NTI3IDE1LjI0NDggMjEuNTYwNyAxNC44MzQ2IDIxLjU2MDdIMTQuMTYyMVpNMjEuNjgwMiAyMS41OTQ3VjIyLjY1ODdIMjIuODQ2M0MyMy4wOTkzIDIyLjY1ODcgMjMuMjY0MSAyMi41OTc2IDIzLjM3NjcgMjIuNTFMMjMuMzgxMSAyMi41MDY2QzIzLjQ2MDQgMjIuNDQ2NiAyMy41MjczIDIyLjM0NjUgMjMuNTI3MyAyMi4xMjI1QzIzLjUyNzMgMjEuODk3OCAyMy40NjA0IDIxLjgwNDcgMjMuMzg3MSAyMS43NTEyTDIzLjM3NjYgMjEuNzQzNkMyMy4yNjQgMjEuNjU2IDIzLjA5OTMgMjEuNTk0NyAyMi44NDYzIDIxLjU5NDdIMjEuNjgwMlpNMjEuNjgwMiAyNC4zMjcxVjI1Ljc1NzJIMjMuMDI1MUMyMy4yMzY4IDI1Ljc1NzIgMjMuNDA0MyAyNS43MjA1IDIzLjUzNzYgMjUuNjU5NUMyMy42NjU3IDI1LjYwMSAyMy43NTc3IDI1LjUyMDQgMjMuODI1MSAyNS40MTU4QzIzLjg4NDQgMjUuMzIzOSAyMy45Mjc0IDI1LjE5MDUgMjMuOTI3NCAyNC45OTExQzIzLjkyNzQgMjQuODEzNCAyMy44ODY3IDI0LjcwNDUgMjMuODM2NCAyNC42MzQxQzIzLjc3NDcgMjQuNTQ3OCAyMy42ODcgMjQuNDc2NiAyMy41NTY1IDI0LjQyNDRMMjMuNTQ2OSAyNC40MjA1QzIzLjQxMTEgMjQuMzYyMyAyMy4yNDAyIDI0LjMyNzEgMjMuMDI1MSAyNC4zMjcxSDIxLjY4MDJaIiBjbGlwLXJ1bGU9ImV2ZW5vZGQiIGZpbGwtcnVsZT0iZXZlbm9kZCIvPiYjeGE7PC9zdmc+;fontFamily=VK Sans Display;fillColor=none;strokeColor=none;fontColor=#212121;gradientColor=none;rounded=0;" parent="1" vertex="1">
          <mxGeometry x="991" y="600" width="28" height="28" as="geometry" />
        </mxCell>
        <mxCell id="bnDB2GUK7mdYps06CzCC-10" value="DB n" style="shape=image;verticalLabelPosition=bottom;labelBackgroundColor=default;verticalAlign=middle;aspect=fixed;imageAspect=0;image=data:image/svg+xml,PHN2ZyB4bWxucz0iaHR0cDovL3d3dy53My5vcmcvMjAwMC9zdmciIGZpbGw9Im5vbmUiIHZpZXdCb3g9IjAgMCAyOCAyOCIgaGVpZ2h0PSIyOCIgd2lkdGg9IjI4Ij4mI3hhOzxwYXRoIGZpbGw9IiMwMDc3RkYiIGQ9Ik00LjcwMDg4IDYuOTc3NDNDNC44MzA1MyA3Ljk4Mjc0IDUuMzE0MjIgOC44NzA1MSA2LjAyMDg3IDkuNTA2OTVDNS4zMTQyMiAxMC4xNDM0IDQuODMwNTMgMTEuMDMxMSA0LjcwMDg4IDEyLjAzNjVDNC42NjY2NiAxMi4zMDE4IDQuNjY2NjYgMTIuNjE3OSA0LjY2NjY2IDEzLjI1QzQuNjY2NjYgMTMuODgyMSA0LjY2NjY2IDE0LjE5ODIgNC43MDA4OCAxNC40NjM1QzQuODMwNTMgMTUuNDY4OSA1LjMxNDIyIDE2LjM1NjYgNi4wMjA4NyAxNi45OTMxQzUuMzE0MjIgMTcuNjI5NSA0LjgzMDUzIDE4LjUxNzMgNC43MDA4OCAxOS41MjI2QzQuNjY2NjYgMTkuNzg3OSA0LjY2NjY2IDIwLjEwNCA0LjY2NjY2IDIwLjczNjFDNC42NjY2NiAyMS4zNjgyIDQuNjY2NjYgMjEuNjg0MyA0LjcwMDg4IDIxLjk0OTZDNC45MzcxOCAyMy43ODIgNi4zNDk2MiAyNS4yMjM4IDguMTQ0NTUgMjUuNDY1MUM4LjQwNDQ4IDI1LjUgOC43MTQxIDI1LjUgOS4zMzMzMiAyNS41SDkuOTc5MTdDMTAuNTQzIDI1LjUgMTEgMjUuMDQzIDExIDI0LjQ3OTJDMTEgMjMuOTE1NCAxMC41NDMgMjMuNDU4MyA5Ljk3OTE3IDIzLjQ1ODNIOS4zMzMzMkM4LjY1MDUyIDIzLjQ1ODMgOC41MDI4MSAyMy40NTM5IDguNDA1NiAyMy40NDA5QzcuNTA4MTQgMjMuMzIwMyA2LjgwMTkyIDIyLjU5OTMgNi42ODM3NyAyMS42ODMyQzYuNjcwOTcgMjEuNTgzOSA2LjY2NjY2IDIxLjQzMzEgNi42NjY2NiAyMC43MzYxQzYuNjY2NjYgMjAuMDM5MSA2LjY3MDk3IDE5Ljg4ODMgNi42ODM3NyAxOS43ODkxQzYuODAxOTIgMTguODcyOSA3LjUwODE0IDE4LjE1MiA4LjQwNTYgMTguMDMxNEM4LjUwMjgxIDE4LjAxODMgOC42NTA1MyAxOC4wMTM5IDkuMzMzMzIgMTguMDEzOUgxMkgxN0gxOS41OTQ0QzIyLjA4NTUgMTguMDEzOSAyMy4xNzI2IDE2LjE3NjggMjMuMjk5MSAxNC40NjM1QzIzLjMzMzMgMTQgMjMuMzMzMyAxMy44ODIxIDIzLjMzMzMgMTMuMjVDMjMuMzMzMyAxMi42MTc5IDIzLjMzMzMgMTIuMzAxOCAyMy4yOTkxIDEyLjAzNjVDMjMuMTY5NCAxMS4wMzExIDIyLjY4NTggMTAuMTQzNCAyMS45NzkxIDkuNTA2OTVDMjIuNjg1OCA4Ljg3MDUxIDIzLjE2OTQgNy45ODI3NCAyMy4yOTkxIDYuOTc3NDNDMjMuMzMzMyA2LjcxMjA4IDIzLjMzMzMgNi4zOTYwMiAyMy4zMzMzIDUuNzYzODlDMjMuMzMzMyA1LjEzMTc2IDIzLjMzMzMgNC44MTU3IDIzLjI5OTEgNC41NTAzNUMyMy4wNjI4IDIuNzE4MDIgMjEuNjUwNCAxLjI3NjE2IDE5Ljg1NTQgMS4wMzQ5M0MxOS41OTU1IDEgMTkuMjg1OSAxIDE4LjY2NjcgMUg5LjMzMzMyQzguNzE0MSAxIDguNDA0NDggMSA4LjE0NDU1IDEuMDM0OTNDNi4zNDk2MiAxLjI3NjE2IDQuOTM3MTggMi43MTgwMiA0LjcwMDg4IDQuNTUwMzVDNC42NjY2NiA0LjgxNTcgNC42NjY2NiA1LjEzMTc2IDQuNjY2NjYgNS43NjM4OUM0LjY2NjY2IDYuMzk2MDIgNC42NjY2NiA2LjcxMjA4IDQuNzAwODggNi45Nzc0M1pNMTguNjY2NyAzLjA0MTY3SDkuMzMzMzJDOC42NTA1MyAzLjA0MTY3IDguNTAyODEgMy4wNDYwNyA4LjQwNTYgMy4wNTkxM0M3LjUwODE0IDMuMTc5NzUgNi44MDE5MiAzLjkwMDY4IDYuNjgzNzcgNC44MTY4NEM2LjY3MDk3IDQuOTE2MDcgNi42NjY2NiA1LjA2Njg3IDYuNjY2NjYgNS43NjM4OUM2LjY2NjY2IDYuNDYwOTEgNi42NzA5NyA2LjYxMTcxIDYuNjgzNzcgNi43MTA5NEM2LjgwMTkyIDcuNjI3MSA3LjUwODE0IDguMzQ4MDMgOC40MDU2IDguNDY4NjRDOC41MDI4MSA4LjQ4MTcxIDguNjUwNTIgOC40ODYxMSA5LjMzMzMyIDguNDg2MTFIMTguNjY2N0MxOS4zNDk1IDguNDg2MTEgMTkuNDk3MiA4LjQ4MTcxIDE5LjU5NDQgOC40Njg2NEMyMC40OTE4IDguMzQ4MDMgMjEuMTk4MSA3LjYyNzEgMjEuMzE2MiA2LjcxMDk0QzIxLjMyOSA2LjYxMTcxIDIxLjMzMzMgNi40NjA5MSAyMS4zMzMzIDUuNzYzODlDMjEuMzMzMyA1LjA2Njg3IDIxLjMyOSA0LjkxNjA3IDIxLjMxNjIgNC44MTY4NEMyMS4xOTgxIDMuOTAwNjggMjAuNDkxOCAzLjE3OTc1IDE5LjU5NDQgMy4wNTkxM0MxOS40OTcyIDMuMDQ2MDcgMTkuMzQ5NSAzLjA0MTY3IDE4LjY2NjcgMy4wNDE2N1pNMTguNjY2NyAxNS45NzIyQzE5LjM0OTUgMTUuOTcyMiAxOS40OTcyIDE1Ljk2NzggMTkuNTk0NCAxNS45NTQ4QzIwLjQ5MTggMTUuODM0MSAyMS4xOTgxIDE1LjExMzIgMjEuMzE2MiAxNC4xOTdDMjEuMzI5IDE0LjA5NzggMjEuMzMzMyAxMy45NDcgMjEuMzMzMyAxMy4yNUMyMS4zMzMzIDEyLjU1MyAyMS4zMjkgMTIuNDAyMiAyMS4zMTYyIDEyLjMwM0MyMS4xOTgxIDExLjM4NjggMjAuNDkxOCAxMC42NjU5IDE5LjU5NDQgMTAuNTQ1MkMxOS40OTcyIDEwLjUzMjIgMTkuMzQ5NSAxMC41Mjc4IDE4LjY2NjcgMTAuNTI3OEg5LjMzMzMyQzguNjUwNTMgMTAuNTI3OCA4LjUwMjgxIDEwLjUzMjIgOC40MDU2IDEwLjU0NTJDNy41MDgxNCAxMC42NjU5IDYuODAxOTIgMTEuMzg2OCA2LjY4Mzc3IDEyLjMwM0M2LjY3MDk3IDEyLjQwMjIgNi42NjY2NiAxMi41NTMgNi42NjY2NiAxMy4yNUM2LjY2NjY2IDEzLjk0NyA2LjY3MDk3IDE0LjA5NzggNi42ODM3NyAxNC4xOTdDNi44MDE5MiAxNS4xMTMyIDcuNTA4MTQgMTUuODM0MSA4LjQwNTYgMTUuOTU0OEM4LjUwMjgxIDE1Ljk2NzggOC42NTA1MiAxNS45NzIyIDkuMzMzMzIgMTUuOTcyMkgxMkgxOC42NjY3Wk0xMi42ODMxIDIwLjE3MzZDMTIuODUwNSAyMC4wMDg4IDEzLjA2MzIgMTkuOTI2MyAxMy4yOTM4IDE5LjkyNjNIMTQuODM0NkMxNS4zNjk3IDE5LjkyNjMgMTUuODY3NSAyMC4wMTY1IDE2LjMyMiAyMC4yMDQyQzE2Ljc3NjggMjAuMzg0IDE3LjE3NDkgMjAuNjQ1NyAxNy41MTE5IDIwLjk4ODdDMTcuODQ5MSAyMS4zMjYzIDE4LjEwNzIgMjEuNzI0NyAxOC4yODY0IDIyLjE3OTFDMTguNDY3MiAyMi42Mzc3IDE4LjU1NDQgMjMuMTM3IDE4LjU1NDQgMjMuNjcxN0MxOC41NTQ0IDI0LjIwNjUgMTguNDY3MiAyNC43MDc5IDE4LjI4NzEgMjUuMTcwOUwxOC4yODY0IDI1LjE3MjhDMTguMTA3MiAyNS42MjcyIDE3Ljg0OTQgMjYuMDI3NyAxNy41MTMzIDI2LjM3MDJMMTcuNTEwNSAyNi4zNzMxQzE3LjE3MzYgMjYuNzEgMTYuNzc2NCAyNi45NzA2IDE2LjMyMzQgMjcuMTU1N0wxNi4zMjA2IDI3LjE1NjhDMTUuODY2NSAyNy4zMzg1IDE1LjM2OTIgMjcuNDI1NiAxNC44MzQ2IDI3LjQyNTZIMTMuMjkzOEMxMy4wNjA4IDI3LjQyNTYgMTIuODQ2MSAyNy4zNDE1IDEyLjY3NzkgMjcuMTczM0MxMi41MDk4IDI3LjAwNTEgMTIuNDI1NiAyNi43OTA0IDEyLjQyNTYgMjYuNTU3NFYyMC43OTQ2QzEyLjQyNTYgMjAuNTY0MSAxMi41MDQ2IDIwLjM0MyAxMi42ODMxIDIwLjE3MzZaTTI0Ljc4MzUgMjMuMzA2M0MyNC45MzI4IDIzLjQwNyAyNS4wNjgxIDIzLjUyNzUgMjUuMTg3OSAyMy42NjgyQzI1LjQ5NDYgMjQuMDI4NiAyNS42Mjk5IDI0LjQ4MyAyNS42Mjk5IDI0Ljk5MTFDMjUuNjI5OSAyNS40NTI1IDI1LjUxODggMjUuODc3NCAyNS4yODYyIDI2LjI1MkMyNS4wNjI2IDI2LjYyMTMgMjQuNzQ5MyAyNi45MTA4IDI0LjM1NzkgMjcuMTJMMjQuMzUyOCAyNy4xMjI3QzIzLjk1NDggMjcuMzI4NiAyMy41MDg2IDI3LjQyNTYgMjMuMDI1MSAyNy40MjU2SDIwLjgxMTlDMjAuNTc4OSAyNy40MjU2IDIwLjM2NDIgMjcuMzQxNSAyMC4xOTYgMjcuMTczM0MyMC4wMjc4IDI3LjAwNTEgMTkuOTQzNyAyNi43OTA0IDE5Ljk0MzcgMjYuNTU3NFYyMC43OTQ2QzE5Ljk0MzcgMjAuNTY0MSAyMC4wMjI3IDIwLjM0MyAyMC4yMDExIDIwLjE3MzZDMjAuMzY4NSAyMC4wMDg4IDIwLjU4MTIgMTkuOTI2MyAyMC44MTE5IDE5LjkyNjNIMjIuODQ2M0MyMy4yODc1IDE5LjkyNjMgMjMuNjk0MyAyMC4wMTM4IDI0LjA1NDEgMjAuMjAzM0MyNC40MTMgMjAuMzgzNyAyNC43MDE5IDIwLjY0MTkgMjQuOTA5MyAyMC45NzY5QzI1LjEyNjEgMjEuMzE3NyAyNS4yMjk4IDIxLjcwNDIgMjUuMjI5OCAyMi4xMjI1QzI1LjIyOTggMjIuNDgzNiAyNS4xMjg4IDIyLjgxOSAyNC45Mjc3IDIzLjExNzNMMjQuNzgzNSAyMy4zMDYzWk0xNC4xNjIxIDIxLjU2MDdWMjUuNzkxM0gxNC44MzQ2QzE1LjI0NDQgMjUuNzkxMyAxNS41ODcxIDI1LjY5OTQgMTUuODc2MiAyNS41Mjc5QzE2LjE3OTMgMjUuMzQ1OSAxNi40MTU2IDI1LjEwMDkgMTYuNTg5NCAyNC43ODY1QzE2Ljc2MSAyNC40NzA3IDE2Ljg1MiAyNC4xMDI3IDE2Ljg1MiAyMy42NzE3QzE2Ljg1MiAyMy4yMzM0IDE2Ljc2MDMgMjIuODY2NCAxNi41OTAxIDIyLjU1OEMxNi40MTY1IDIyLjI0MzggMTYuMTgxMSAyMi4wMDIyIDE1Ljg3OTYgMjEuODI1OUwxNS44NzcxIDIxLjgyNDVDMTUuNTg3OCAyMS42NTI3IDE1LjI0NDggMjEuNTYwNyAxNC44MzQ2IDIxLjU2MDdIMTQuMTYyMVpNMjEuNjgwMiAyMS41OTQ3VjIyLjY1ODdIMjIuODQ2M0MyMy4wOTkzIDIyLjY1ODcgMjMuMjY0MSAyMi41OTc2IDIzLjM3NjcgMjIuNTFMMjMuMzgxMSAyMi41MDY2QzIzLjQ2MDQgMjIuNDQ2NiAyMy41MjczIDIyLjM0NjUgMjMuNTI3MyAyMi4xMjI1QzIzLjUyNzMgMjEuODk3OCAyMy40NjA0IDIxLjgwNDcgMjMuMzg3MSAyMS43NTEyTDIzLjM3NjYgMjEuNzQzNkMyMy4yNjQgMjEuNjU2IDIzLjA5OTMgMjEuNTk0NyAyMi44NDYzIDIxLjU5NDdIMjEuNjgwMlpNMjEuNjgwMiAyNC4zMjcxVjI1Ljc1NzJIMjMuMDI1MUMyMy4yMzY4IDI1Ljc1NzIgMjMuNDA0MyAyNS43MjA1IDIzLjUzNzYgMjUuNjU5NUMyMy42NjU3IDI1LjYwMSAyMy43NTc3IDI1LjUyMDQgMjMuODI1MSAyNS40MTU4QzIzLjg4NDQgMjUuMzIzOSAyMy45Mjc0IDI1LjE5MDUgMjMuOTI3NCAyNC45OTExQzIzLjkyNzQgMjQuODEzNCAyMy44ODY3IDI0LjcwNDUgMjMuODM2NCAyNC42MzQxQzIzLjc3NDcgMjQuNTQ3OCAyMy42ODcgMjQuNDc2NiAyMy41NTY1IDI0LjQyNDRMMjMuNTQ2OSAyNC40MjA1QzIzLjQxMTEgMjQuMzYyMyAyMy4yNDAyIDI0LjMyNzEgMjMuMDI1MSAyNC4zMjcxSDIxLjY4MDJaIiBjbGlwLXJ1bGU9ImV2ZW5vZGQiIGZpbGwtcnVsZT0iZXZlbm9kZCIvPiYjeGE7PC9zdmc+;fontFamily=VK Sans Display;fillColor=none;strokeColor=none;fontColor=#212121;gradientColor=none;rounded=0;" parent="1" vertex="1">
          <mxGeometry x="1080" y="600" width="28" height="28" as="geometry" />
        </mxCell>
        <mxCell id="bnDB2GUK7mdYps06CzCC-13" value="&lt;font color=&quot;#212121&quot;&gt;Application&lt;br&gt;&lt;/font&gt;" style="rounded=1;whiteSpace=wrap;html=1;fontFamily=VK Sans Display;strokeColor=none;arcsize=12;fillColor=#F6F7F9;spacing=0;spacingTop=12;spacingBottom=12;arcSize=12;absoluteArcSize=1;" parent="1" vertex="1">
          <mxGeometry x="870" y="272" width="260" height="53" as="geometry" />
        </mxCell>
        <mxCell id="bnDB2GUK7mdYps06CzCC-18" value="" style="endArrow=open;html=1;fontFamily=VK Sans Display;fontColor=#212121;rounded=0;strokeColor=#7C8A9A;endFill=0;startArrow=open;startFill=0;strokeWidth=2;arcSize=8;" parent="1" edge="1">
          <mxGeometry width="50" height="50" relative="1" as="geometry">
            <mxPoint x="1001" y="560.5" as="sourcePoint" />
            <mxPoint x="1001" y="520" as="targetPoint" />
          </mxGeometry>
        </mxCell>
        <mxCell id="bnDB2GUK7mdYps06CzCC-20" value="" style="endArrow=open;html=1;fontFamily=VK Sans Display;fontColor=#212121;rounded=0;strokeColor=#7C8A9A;endFill=0;startArrow=open;startFill=0;strokeWidth=2;arcSize=8;" parent="1" edge="1">
          <mxGeometry width="50" height="50" relative="1" as="geometry">
            <mxPoint x="1001" y="460" as="sourcePoint" />
            <mxPoint x="1001" y="419.5" as="targetPoint" />
          </mxGeometry>
        </mxCell>
        <mxCell id="bnDB2GUK7mdYps06CzCC-22" value="" style="endArrow=open;html=1;fontFamily=VK Sans Display;fontColor=#212121;rounded=0;strokeColor=#7C8A9A;endFill=0;startArrow=open;startFill=0;strokeWidth=2;arcSize=8;" parent="1" edge="1">
          <mxGeometry width="50" height="50" relative="1" as="geometry">
            <mxPoint x="1001" y="366.5" as="sourcePoint" />
            <mxPoint x="1001" y="326" as="targetPoint" />
          </mxGeometry>
        </mxCell>
        <mxCell id="bnDB2GUK7mdYps06CzCC-26" value="" style="shape=image;verticalLabelPosition=bottom;labelBackgroundColor=default;verticalAlign=top;aspect=fixed;imageAspect=0;image=data:image/svg+xml,PHN2ZyB4bWxucz0iaHR0cDovL3d3dy53My5vcmcvMjAwMC9zdmciIGZpbGw9Im5vbmUiIHZpZXdCb3g9IjAgMCAyMCAyMCIgaGVpZ2h0PSIyMCIgd2lkdGg9IjIwIj4mI3hhOzxwYXRoIGZpbGw9IiMxOTE5MUEiIGQ9Ik01IDEwQzUgMTAuNjkwNCA0LjQ0MDM2IDExLjI1IDMuNzUgMTEuMjVDMy4wNTk2NCAxMS4yNSAyLjUgMTAuNjkwNCAyLjUgMTBDMi41IDkuMzA5NjQgMy4wNTk2NCA4Ljc1IDMuNzUgOC43NUM0LjQ0MDM2IDguNzUgNSA5LjMwOTY0IDUgMTBaTTExLjI1IDEwQzExLjI1IDEwLjY5MDQgMTAuNjkwNCAxMS4yNSAxMCAxMS4yNUM5LjMwOTY0IDExLjI1IDguNzUgMTAuNjkwNCA4Ljc1IDEwQzguNzUgOS4zMDk2NCA5LjMwOTY0IDguNzUgMTAgOC43NUMxMC42OTA0IDguNzUgMTEuMjUgOS4zMDk2NCAxMS4yNSAxMFpNMTYuMjUgMTEuMjVDMTYuOTQwNCAxMS4yNSAxNy41IDEwLjY5MDQgMTcuNSAxMEMxNy41IDkuMzA5NjQgMTYuOTQwNCA4Ljc1IDE2LjI1IDguNzVDMTUuNTU5NiA4Ljc1IDE1IDkuMzA5NjQgMTUgMTBDMTUgMTAuNjkwNCAxNS41NTk2IDExLjI1IDE2LjI1IDExLjI1WiIgY2xpcC1ydWxlPSJldmVub2RkIiBmaWxsLXJ1bGU9ImV2ZW5vZGQiLz4mI3hhOzwvc3ZnPg==;" parent="1" vertex="1">
          <mxGeometry x="1040" y="605.5" width="20" height="20" as="geometry" />
        </mxCell>
        <mxCell id="qm-M95qm83rn5tgPt99t-1" value="Database as a Service (DBaaS)&#xa;Interface" style="shape=image;verticalLabelPosition=bottom;labelBackgroundColor=default;verticalAlign=middle;aspect=fixed;imageAspect=0;image=data:image/svg+xml,PHN2ZyB4bWxucz0iaHR0cDovL3d3dy53My5vcmcvMjAwMC9zdmciIGZpbGw9Im5vbmUiIHZpZXdCb3g9IjAgMCAyOCAyOCIgaGVpZ2h0PSIyOCIgd2lkdGg9IjI4Ij4mI3hhOzxwYXRoIGZpbGw9IiMwMDc3RkYiIGQ9Ik0yLjMzMzM0IDExLjY2NjdDMi4zMzMzNCA4LjM5OTcgMi4zMzMzNCA2Ljc2NjIyIDIuOTY5MTQgNS41MTg0QzMuNTI4NCA0LjQyMDc5IDQuNDIwNzkgMy41Mjg0IDUuNTE4NCAyLjk2OTE0QzYuNzY2MjIgMi4zMzMzNCA4LjM5OTcgMi4zMzMzNCAxMS42NjY3IDIuMzMzMzRIMTYuMzMzM0MxOS42MDAzIDIuMzMzMzQgMjEuMjMzOCAyLjMzMzM0IDIyLjQ4MTYgMi45NjkxNEMyMy41NzkyIDMuNTI4NCAyNC40NzE2IDQuNDIwNzkgMjUuMDMwOSA1LjUxODRDMjUuNjY2NyA2Ljc2NjIyIDI1LjY2NjcgOC4zOTk3IDI1LjY2NjcgMTEuNjY2N1YxNi4zMzMzQzI1LjY2NjcgMTkuNjAwMyAyNS42NjY3IDIxLjIzMzggMjUuMDMwOSAyMi40ODE2QzI0LjQ3MTYgMjMuNTc5MiAyMy41NzkyIDI0LjQ3MTYgMjIuNDgxNiAyNS4wMzA5QzIxLjIzMzggMjUuNjY2NyAxOS42MDAzIDI1LjY2NjcgMTYuMzMzMyAyNS42NjY3SDExLjY2NjdDOC4zOTk3IDI1LjY2NjcgNi43NjYyMiAyNS42NjY3IDUuNTE4NCAyNS4wMzA5QzQuNDIwNzkgMjQuNDcxNiAzLjUyODQgMjMuNTc5MiAyLjk2OTE0IDIyLjQ4MTZDMi4zMzMzNCAyMS4yMzM4IDIuMzMzMzQgMTkuNjAwMyAyLjMzMzM0IDE2LjMzMzNWMTEuNjY2N1pNMTEuNjY2NyA0LjUyMDg0SDE2LjMzMzNDMTguMDAyOSA0LjUyMDg0IDE5LjEyMzYgNC41MjI1NCAxOS45ODY1IDQuNTkzMDVDMjAuODI0IDQuNjYxNDcgMjEuMjI0NCA0Ljc4MzYzIDIxLjQ4ODUgNC45MTgyMkMyMi4xNzQ1IDUuMjY3NzUgMjIuNzMyMyA1LjgyNTUgMjMuMDgxOCA2LjUxMTVDMjMuMjE2NCA2Ljc3NTY0IDIzLjMzODUgNy4xNzYwNCAyMy40MDcgOC4wMTM0OUMyMy40Nzc1IDguODc2NDcgMjMuNDc5MiA5Ljk5NzA5IDIzLjQ3OTIgMTEuNjY2N1YxNi4zMzMzQzIzLjQ3OTIgMTguMDAyOSAyMy40Nzc1IDE5LjEyMzYgMjMuNDA3IDE5Ljk4NjVDMjMuMzM4NSAyMC44MjQgMjMuMjE2NCAyMS4yMjQ0IDIzLjA4MTggMjEuNDg4NUMyMi43MzIzIDIyLjE3NDUgMjIuMTc0NSAyMi43MzIzIDIxLjQ4ODUgMjMuMDgxOEMyMS4yMjQ0IDIzLjIxNjQgMjAuODI0IDIzLjMzODUgMTkuOTg2NSAyMy40MDdDMTkuMTIzNiAyMy40Nzc1IDE4LjAwMjkgMjMuNDc5MiAxNi4zMzMzIDIzLjQ3OTJIMTEuNjY2N0M5Ljk5NzA5IDIzLjQ3OTIgOC44NzY0NyAyMy40Nzc1IDguMDEzNDkgMjMuNDA3QzcuMTc2MDQgMjMuMzM4NSA2Ljc3NTY0IDIzLjIxNjQgNi41MTE1IDIzLjA4MThDNS44MjU1IDIyLjczMjMgNS4yNjc3NSAyMi4xNzQ1IDQuOTE4MjIgMjEuNDg4NUM0Ljc4MzYzIDIxLjIyNDQgNC42NjE0NyAyMC44MjQgNC41OTMwNSAxOS45ODY1QzQuNTIyNTQgMTkuMTIzNiA0LjUyMDg0IDE4LjAwMjkgNC41MjA4NCAxNi4zMzMzVjExLjY2NjdDNC41MjA4NCA5Ljk5NzA5IDQuNTIyNTQgOC44NzY0NyA0LjU5MzA1IDguMDEzNDlDNC42NjE0NyA3LjE3NjA0IDQuNzgzNjMgNi43NzU2NCA0LjkxODIyIDYuNTExNUM1LjI2Nzc1IDUuODI1NSA1LjgyNTUgNS4yNjc3NSA2LjUxMTUgNC45MTgyMkM2Ljc3NTY0IDQuNzgzNjMgNy4xNzYwNCA0LjY2MTQ3IDguMDEzNDkgNC41OTMwNUM4Ljg3NjQ3IDQuNTIyNTQgOS45OTcwOSA0LjUyMDg0IDExLjY2NjcgNC41MjA4NFoiIGNsaXAtcnVsZT0iZXZlbm9kZCIgZmlsbC1ydWxlPSJldmVub2RkIi8+JiN4YTs8L3N2Zz4=;fontFamily=VK Sans Display;fillColor=none;strokeColor=none;fontColor=#212121;gradientColor=none;rounded=0;" vertex="1" parent="1">
          <mxGeometry x="986" y="460" width="28" height="28" as="geometry" />
        </mxCell>
        <mxCell id="qm-M95qm83rn5tgPt99t-2" value="Public Network (Cloud)" style="shape=image;verticalLabelPosition=bottom;labelBackgroundColor=default;verticalAlign=middle;aspect=fixed;imageAspect=0;image=data:image/svg+xml,PHN2ZyB4bWxucz0iaHR0cDovL3d3dy53My5vcmcvMjAwMC9zdmciIGZpbGw9Im5vbmUiIHZpZXdCb3g9IjAgMCAyOCAyOCIgaGVpZ2h0PSIyOCIgd2lkdGg9IjI4Ij4mI3hhOzxwYXRoIGZpbGw9IiMwMDc3RkYiIGQ9Ik0yNS4wODMzIDcuMDcyOTFDMjUuMDgzMyA5LjM2ODM0IDIzLjIyMjUgMTEuMjI5MiAyMC45MjcxIDExLjIyOTJDMjAuMzcwOSAxMS4yMjkyIDE5Ljg0MDIgMTEuMTE5OSAxOS4zNTU0IDEwLjkyMTdDMTkuMDUxNyAxMC43OTc2IDE4LjY5MzQgMTAuODQ5MSAxOC40NzQ3IDExLjA5MzdMMTYuMjgzMSAxMy41NDQ2QzE2LjA0OCAxMy44MDc1IDE2LjA0OCAxNC4yMDUgMTYuMjgzMSAxNC40NjhMMTguNDY2IDE2LjkwOThDMTguNjg1IDE3LjE1NDkgMTkuMDQ0MSAxNy4yMDYyIDE5LjM0ODIgMTcuMDgxMkMxOS44MzUgMTYuODgxMiAyMC4zNjgxIDE2Ljc3MDggMjAuOTI3MSAxNi43NzA4QzIzLjIyMjUgMTYuNzcwOCAyNS4wODMzIDE4LjYzMTYgMjUuMDgzMyAyMC45MjcxQzI1LjA4MzMgMjMuMjIyNSAyMy4yMjI1IDI1LjA4MzMgMjAuOTI3MSAyNS4wODMzQzE4LjYzMTYgMjUuMDgzMyAxNi43NzA4IDIzLjIyMjUgMTYuNzcwOCAyMC45MjcxQzE2Ljc3MDggMjAuMzI3NiAxNi44OTc4IDE5Ljc1NzcgMTcuMTI2MiAxOS4yNDI5QzE3LjI0OTUgMTguOTY1IDE3LjIyMzUgMTguNjM1IDE3LjAyMDYgMTguNDA4NkwxNC4yMDY1IDE1LjI2OTRDMTQuMDc1MSAxNS4xMjI4IDEzLjg4NzUgMTUuMDM5MSAxMy42OTA3IDE1LjAzOTFIMTEuNjM1MkMxMS4zMTkxIDE1LjAzOTEgMTEuMDQ4OCAxNS4yNTU3IDEwLjkzMDkgMTUuNTQ5QzEwLjMxNjcgMTcuMDc3MyA4LjgyMDgzIDE4LjE1NjIgNy4wNzI5MSAxOC4xNTYyQzQuNzc3NDcgMTguMTU2MiAyLjkxNjY2IDE2LjI5NTQgMi45MTY2NiAxNEMyLjkxNjY2IDExLjcwNDYgNC43Nzc0NyA5Ljg0Mzc0IDcuMDcyOTEgOS44NDM3NEM4LjgyMDgzIDkuODQzNzQgMTAuMzE2NyAxMC45MjI3IDEwLjkzMDkgMTIuNDUxQzExLjA0ODggMTIuNzQ0MyAxMS4zMTkxIDEyLjk2MDkgMTEuNjM1MiAxMi45NjA5SDEzLjY5MTRDMTMuODg3OCAxMi45NjA5IDE0LjA3NSAxMi44Nzc1IDE0LjIwNjQgMTIuNzMxNUwxNy4wMjMyIDkuNjAwMTVDMTcuMjI3MiA5LjM3MzM5IDE3LjI1MzMgOS4wNDIwOSAxNy4xMjkxIDguNzYzNTFDMTYuODk4OCA4LjI0NzAyIDE2Ljc3MDggNy42NzQ5MSAxNi43NzA4IDcuMDcyOTFDMTYuNzcwOCA0Ljc3NzQ3IDE4LjYzMTYgMi45MTY2NiAyMC45MjcxIDIuOTE2NjZDMjMuMjIyNSAyLjkxNjY2IDI1LjA4MzMgNC43Nzc0NyAyNS4wODMzIDcuMDcyOTFaTTIzLjAwNTIgNy4wNzI5MUMyMy4wMDUyIDguMjIwNjIgMjIuMDc0OCA5LjE1MTAzIDIwLjkyNzEgOS4xNTEwM0MxOS43Nzk0IDkuMTUxMDMgMTguODQ4OSA4LjIyMDYyIDE4Ljg0ODkgNy4wNzI5MUMxOC44NDg5IDUuOTI1MTkgMTkuNzc5NCA0Ljk5NDc4IDIwLjkyNzEgNC45OTQ3OEMyMi4wNzQ4IDQuOTk0NzggMjMuMDA1MiA1LjkyNTE5IDIzLjAwNTIgNy4wNzI5MVpNOS4xNTEwMyAxNEM5LjE1MTAzIDE1LjE0NzcgOC4yMjA2MiAxNi4wNzgxIDcuMDcyOTEgMTYuMDc4MUM1LjkyNTE5IDE2LjA3ODEgNC45OTQ3OCAxNS4xNDc3IDQuOTk0NzggMTRDNC45OTQ3OCAxMi44NTIzIDUuOTI1MTkgMTEuOTIxOSA3LjA3MjkxIDExLjkyMTlDOC4yMjA2MiAxMS45MjE5IDkuMTUxMDMgMTIuODUyMyA5LjE1MTAzIDE0Wk0yMC45MjcxIDIzLjAwNTJDMjIuMDc0OCAyMy4wMDUyIDIzLjAwNTIgMjIuMDc0OCAyMy4wMDUyIDIwLjkyNzFDMjMuMDA1MiAxOS43Nzk0IDIyLjA3NDggMTguODQ4OSAyMC45MjcxIDE4Ljg0ODlDMTkuNzc5NCAxOC44NDg5IDE4Ljg0ODkgMTkuNzc5NCAxOC44NDg5IDIwLjkyNzFDMTguODQ4OSAyMi4wNzQ4IDE5Ljc3OTQgMjMuMDA1MiAyMC45MjcxIDIzLjAwNTJaIiBjbGlwLXJ1bGU9ImV2ZW5vZGQiIGZpbGwtcnVsZT0iZXZlbm9kZCIvPiYjeGE7PC9zdmc+;fontFamily=VK Sans Display;fillColor=none;strokeColor=none;fontColor=#212121;gradientColor=none;rounded=0;" vertex="1" parent="1">
          <mxGeometry x="986" y="370" width="28" height="28" as="geometry" />
        </mxCell>
      </root>
    </mxGraphModel>
  </diagram>
</mxfile>
